<svg width="79" height="64" viewBox="0 0 79 64" fill="none" xmlns="http://www.w3.org/2000/svg">
<g clip-path="url(#clip0_13_2)">
<path d="M22.233 13.7605C22.233 12.9586 23.0353 12.3086 24.0251 12.3086H65.9233C66.4458 12.3086 66.9422 12.4935 67.2827 12.8144C67.6233 13.1354 67.7738 13.561 67.6949 13.9794L65.905 23.4905C65.7698 24.209 65.0059 24.7238 64.1355 24.7238C64.0457 24.7238 63.9547 24.7184 63.8631 24.707C62.8845 24.5861 62.2123 23.8455 62.3614 23.0528L63.837 15.2124H24.0251C23.0353 15.2124 22.233 14.5623 22.233 13.7605ZM35.8394 38.5122H19.9565L13.3346 7.19814C13.1872 6.50107 12.4413 5.99146 11.5681 5.99146H1.79218C0.802298 5.99146 0 6.64142 0 7.44335C0 8.24527 0.802298 8.89524 1.79218 8.89524H10.0569L16.6788 40.2093C16.8284 40.9169 17.586 41.4163 18.4431 41.4163C18.5435 41.4161 18.6456 41.4094 18.7478 41.3952C18.7549 41.394 18.7619 41.3931 18.7691 41.3919C18.8746 41.4078 18.9835 41.4158 19.0947 41.4158H35.8394C36.8293 41.4158 37.6316 40.7659 37.6316 39.9639C37.6316 39.162 36.8293 38.5122 35.8394 38.5122ZM32.3753 48.7866V51.363C32.3753 53.7848 29.9433 55.755 26.954 55.755C23.9646 55.755 21.5326 53.7848 21.5326 51.363V48.7866C21.5326 46.3648 23.9644 44.3946 26.9536 44.3946C29.9431 44.3946 32.3753 46.3648 32.3753 48.7866ZM28.7909 48.7866C28.7909 47.9659 27.9669 47.2984 26.954 47.2984H26.9536C25.941 47.2984 25.117 47.9659 25.117 48.7866V51.363C25.117 52.1835 25.941 52.8512 26.9536 52.8512C27.9667 52.8512 28.7909 52.1835 28.7909 51.363V48.7866ZM78.7523 35.245C77.6947 42.1279 73.3919 48.2654 66.636 52.5265C60.9506 56.1125 54.1003 58.0085 47.0086 58.0085C45.6735 58.0085 44.3301 57.9412 42.984 57.8054C41.8581 57.6917 40.7231 57.527 39.6093 57.3161C38.862 57.1746 38.3086 56.6633 38.2335 56.0444C38.0011 54.1286 38.0324 52.1848 38.3271 50.2674C40.511 36.0583 56.557 25.9367 74.096 27.7064C75.2231 27.8203 76.3581 27.985 77.4705 28.1957C78.2176 28.3373 78.7706 28.8484 78.8459 29.4669C79.0791 31.3818 79.0476 33.3259 78.7523 35.245ZM75.3768 30.806C74.8029 30.7191 74.2262 30.6462 73.6523 30.5881C58.0761 29.0175 43.8235 38.0061 41.8838 50.6263C41.7731 51.3461 41.7044 52.0698 41.6771 52.7941L58.0727 41.1571C58.8169 40.6287 59.9493 40.6891 60.6017 41.2924C61.2539 41.8954 61.1792 42.8129 60.4346 43.3412L44.036 54.9802C51.3734 55.5937 58.5947 53.9179 64.4336 50.2351C70.434 46.4505 74.2559 40.9993 75.195 34.886C75.4039 33.5314 75.4644 32.1634 75.3768 30.806Z" fill="#62A5F3"/>
</g>
<defs>
<clipPath id="clip0_13_2">
<rect width="79" height="64" fill="white"/>
</clipPath>
</defs>
</svg>
