<svg width="148" height="60" viewBox="0 0 148 60" fill="none" xmlns="http://www.w3.org/2000/svg">
<path d="M10.1248 39.5909C10.0396 38.8712 9.69397 38.3125 9.08791 37.9148C8.48185 37.517 7.73848 37.3182 6.8578 37.3182C6.21386 37.3182 5.65041 37.4223 5.16746 37.6307C4.68924 37.839 4.31519 38.1255 4.0453 38.4901C3.78015 38.8546 3.64757 39.2689 3.64757 39.733C3.64757 40.1212 3.7399 40.455 3.92456 40.7344C4.11395 41.009 4.35543 41.2386 4.64899 41.4233C4.94255 41.6032 5.25032 41.7524 5.57229 41.8707C5.89426 41.9844 6.19019 42.0767 6.46007 42.1477L7.93734 42.5455C8.31613 42.6449 8.73753 42.7822 9.20155 42.9574C9.6703 43.1326 10.1177 43.3717 10.5439 43.6747C10.9748 43.973 11.3299 44.3565 11.6092 44.8253C11.8886 45.294 12.0283 45.8693 12.0283 46.5511C12.0283 47.3371 11.8223 48.0473 11.4104 48.6818C11.0032 49.3163 10.4066 49.8205 9.62058 50.1946C8.83933 50.5687 7.89 50.7557 6.77257 50.7557C5.73091 50.7557 4.82892 50.5876 4.06661 50.2514C3.30903 49.9152 2.71244 49.4465 2.27683 48.8452C1.84596 48.2438 1.60212 47.5455 1.5453 46.75H3.36348C3.41083 47.2992 3.59549 47.7538 3.91746 48.1136C4.24416 48.4687 4.65609 48.7339 5.15325 48.9091C5.65515 49.0795 6.19492 49.1648 6.77257 49.1648C7.44492 49.1648 8.04861 49.0559 8.58365 48.8381C9.11869 48.6155 9.54246 48.3078 9.85496 47.9148C10.1675 47.517 10.3237 47.053 10.3237 46.5227C10.3237 46.0398 10.1888 45.6468 9.91888 45.3438C9.64899 45.0407 9.29388 44.7945 8.85354 44.6051C8.4132 44.4157 7.93734 44.25 7.42598 44.108L5.63621 43.5966C4.49984 43.2699 3.60022 42.8035 2.93734 42.1974C2.27447 41.5914 1.94303 40.7983 1.94303 39.8182C1.94303 39.0038 2.1632 38.2936 2.60354 37.6875C3.04861 37.0767 3.6452 36.6032 4.39331 36.267C5.14615 35.9261 5.98659 35.7557 6.91462 35.7557C7.85212 35.7557 8.68545 35.9238 9.41462 36.2599C10.1438 36.5914 10.7214 37.0459 11.1476 37.6236C11.5784 38.2012 11.8057 38.857 11.8294 39.5909H10.1248ZM14.6969 50.5V39.5909H16.3731V50.5H14.6969ZM15.5492 37.7727C15.2225 37.7727 14.9408 37.6615 14.704 37.4389C14.472 37.2164 14.356 36.9489 14.356 36.6364C14.356 36.3239 14.472 36.0563 14.704 35.8338C14.9408 35.6113 15.2225 35.5 15.5492 35.5C15.8759 35.5 16.1553 35.6113 16.3873 35.8338C16.624 36.0563 16.7424 36.3239 16.7424 36.6364C16.7424 36.9489 16.624 37.2164 16.3873 37.4389C16.1553 37.6615 15.8759 37.7727 15.5492 37.7727ZM23.8464 54.8182C23.0368 54.8182 22.3408 54.714 21.7584 54.5057C21.176 54.3021 20.6907 54.0322 20.3024 53.696C19.9189 53.3646 19.6135 53.0095 19.3862 52.6307L20.7214 51.6932C20.873 51.892 21.0647 52.1193 21.2967 52.375C21.5287 52.6354 21.846 52.8603 22.2484 53.0497C22.6556 53.2438 23.1883 53.3409 23.8464 53.3409C24.7271 53.3409 25.4539 53.1278 26.0268 52.7017C26.5998 52.2756 26.8862 51.608 26.8862 50.6989V48.483H26.7442C26.6211 48.6818 26.4459 48.928 26.2186 49.2216C25.9961 49.5104 25.6741 49.7685 25.2527 49.9957C24.836 50.2183 24.2726 50.3295 23.5623 50.3295C22.6817 50.3295 21.8909 50.1212 21.1902 49.7045C20.4942 49.2879 19.9426 48.6818 19.5354 47.8864C19.1329 47.0909 18.9317 46.125 18.9317 44.9886C18.9317 43.8712 19.1282 42.8982 19.5212 42.0696C19.9141 41.2363 20.461 40.5923 21.1618 40.1378C21.8625 39.6785 22.6722 39.4489 23.5908 39.4489C24.301 39.4489 24.8644 39.5672 25.2811 39.804C25.7025 40.036 26.0245 40.3011 26.247 40.5994C26.4743 40.893 26.6495 41.1345 26.7726 41.3239H26.943V39.5909H28.5623V50.8125C28.5623 51.75 28.3493 52.5123 27.9231 53.0994C27.5017 53.6913 26.9336 54.1245 26.2186 54.3991C25.5084 54.6785 24.7176 54.8182 23.8464 54.8182ZM23.7896 48.8239C24.462 48.8239 25.0301 48.67 25.4942 48.3622C25.9582 48.0545 26.3109 47.6117 26.5524 47.0341C26.7939 46.4564 26.9146 45.7652 26.9146 44.9602C26.9146 44.1742 26.7962 43.4806 26.5595 42.8793C26.3228 42.2779 25.9724 41.8068 25.5084 41.4659C25.0444 41.125 24.4714 40.9545 23.7896 40.9545C23.0794 40.9545 22.4875 41.1345 22.014 41.4943C21.5453 41.8542 21.1926 42.3371 20.9558 42.9432C20.7238 43.5492 20.6078 44.2216 20.6078 44.9602C20.6078 45.7178 20.7262 46.3878 20.9629 46.9702C21.2044 47.5478 21.5595 48.0024 22.0283 48.3338C22.5017 48.6605 23.0889 48.8239 23.7896 48.8239ZM33.3067 43.9375V50.5H31.6305V39.5909H33.2498V41.2955H33.3919C33.6476 40.7415 34.0358 40.2964 34.5567 39.9602C35.0775 39.6193 35.7498 39.4489 36.5737 39.4489C37.3123 39.4489 37.9587 39.6004 38.5126 39.9034C39.0666 40.2017 39.4975 40.6562 39.8052 41.267C40.113 41.8731 40.2669 42.6402 40.2669 43.5682V50.5H38.5908V43.6818C38.5908 42.8248 38.3682 42.1572 37.9231 41.679C37.4781 41.196 36.8673 40.9545 36.0908 40.9545C35.5557 40.9545 35.0775 41.0705 34.6561 41.3026C34.2394 41.5346 33.9104 41.8731 33.6689 42.3182C33.4274 42.7633 33.3067 43.303 33.3067 43.9375ZM55.8297 46.0398V39.5909H57.5059V50.5H55.8297V48.6534H55.7161C55.4604 49.2074 55.0627 49.6785 54.5229 50.0668C53.9832 50.4503 53.3013 50.642 52.4775 50.642C51.7957 50.642 51.1896 50.4929 50.6593 50.1946C50.129 49.8916 49.7123 49.437 49.4093 48.831C49.1063 48.2202 48.9547 47.4508 48.9547 46.5227V39.5909H50.6309V46.4091C50.6309 47.2045 50.8534 47.839 51.2985 48.3125C51.7483 48.786 52.3212 49.0227 53.0172 49.0227C53.4339 49.0227 53.8577 48.9162 54.2886 48.7031C54.7242 48.4901 55.0887 48.1634 55.3823 47.723C55.6806 47.2827 55.8297 46.7216 55.8297 46.0398ZM60.5758 54.5909V39.5909H62.1952V41.3239H62.394C62.5171 41.1345 62.6876 40.893 62.9054 40.5994C63.1279 40.3011 63.4452 40.036 63.8571 39.804C64.2738 39.5672 64.8372 39.4489 65.5474 39.4489C66.466 39.4489 67.2756 39.6785 67.9764 40.1378C68.6772 40.5971 69.224 41.2481 69.617 42.0909C70.01 42.9337 70.2065 43.928 70.2065 45.0739C70.2065 46.2292 70.01 47.2306 69.617 48.0781C69.224 48.9209 68.6795 49.5743 67.9835 50.0384C67.2875 50.4976 66.4849 50.7273 65.5758 50.7273C64.8751 50.7273 64.314 50.6113 63.8926 50.3793C63.4712 50.1425 63.1469 49.875 62.9196 49.5767C62.6923 49.2737 62.5171 49.0227 62.394 48.8239H62.252V54.5909H60.5758ZM62.2236 45.0455C62.2236 45.8693 62.3443 46.5961 62.5858 47.2259C62.8273 47.8509 63.18 48.3409 63.644 48.696C64.108 49.0464 64.6762 49.2216 65.3486 49.2216C66.0493 49.2216 66.6341 49.0369 67.1028 48.6676C67.5763 48.2936 67.9314 47.7917 68.1682 47.1619C68.4096 46.5275 68.5304 45.822 68.5304 45.0455C68.5304 44.2784 68.412 43.5871 68.1753 42.9716C67.9433 42.3513 67.5905 41.8613 67.117 41.5014C66.6483 41.1368 66.0588 40.9545 65.3486 40.9545C64.6667 40.9545 64.0938 41.1274 63.6298 41.473C63.1658 41.8139 62.8154 42.2921 62.5787 42.9077C62.3419 43.5185 62.2236 44.2311 62.2236 45.0455Z" fill="#62A5F3"/>
<path d="M118 30C120.984 30 123.845 28.8147 125.955 26.705C128.065 24.5952 129.25 21.7337 129.25 18.75C129.25 15.7663 128.065 12.9048 125.955 10.795C123.845 8.68526 120.984 7.5 118 7.5C115.016 7.5 112.155 8.68526 110.045 10.795C107.935 12.9048 106.75 15.7663 106.75 18.75C106.75 21.7337 107.935 24.5952 110.045 26.705C112.155 28.8147 115.016 30 118 30ZM125.5 18.75C125.5 20.7391 124.71 22.6468 123.303 24.0533C121.897 25.4598 119.989 26.25 118 26.25C116.011 26.25 114.103 25.4598 112.697 24.0533C111.29 22.6468 110.5 20.7391 110.5 18.75C110.5 16.7609 111.29 14.8532 112.697 13.4467C114.103 12.0402 116.011 11.25 118 11.25C119.989 11.25 121.897 12.0402 123.303 13.4467C124.71 14.8532 125.5 16.7609 125.5 18.75ZM140.5 48.75C140.5 52.5 136.75 52.5 136.75 52.5H99.25C99.25 52.5 95.5 52.5 95.5 48.75C95.5 45 99.25 33.75 118 33.75C136.75 33.75 140.5 45 140.5 48.75ZM136.75 48.735C136.746 47.8125 136.173 45.0375 133.63 42.495C131.185 40.05 126.584 37.5 118 37.5C109.413 37.5 104.815 40.05 102.37 42.495C99.8275 45.0375 99.2575 47.8125 99.25 48.735H136.75Z" fill="#62A5F3"/>
</svg>
