<svg width="45" height="45" viewBox="0 0 45 45" fill="none" xmlns="http://www.w3.org/2000/svg">
<path d="M22.5001 41.6667C22.5001 43.5083 21.1576 45 19.5001 45C17.8426 45 16.5 43.5083 16.5 41.6667C16.5 39.825 17.8426 38.3333 19.5001 38.3333C21.1576 38.3333 22.5001 39.825 22.5001 41.6667ZM36.0001 38.3333C34.3426 38.3333 33.0001 39.825 33.0001 41.6667C33.0001 43.5083 34.3426 45 36.0001 45C37.6576 45 39.0001 43.5083 39.0001 41.6667C39.0001 39.825 37.6576 38.3333 36.0001 38.3333ZM39.0001 30H16.9216L17.6716 33.3333H39.0001C39.8296 33.3333 40.5001 34.08 40.5001 35C40.5001 35.92 39.8296 36.6667 39.0001 36.6667H16.5C15.8115 36.6667 15.213 36.1467 15.045 35.405L7.82852 3.33333H1.5C0.670502 3.33333 0 2.58667 0 1.66667C0 0.746667 0.670502 0 1.5 0H9.00003C9.68853 0 10.287 0.52 10.455 1.26167L11.67 6.66667H11.6715H43.5001C43.9621 6.66667 44.3986 6.90333 44.6821 7.30833C44.9656 7.71333 45.0676 8.24 44.9551 8.73833L40.4551 28.7383C40.2871 29.48 39.6886 30 39.0001 30ZM31.5001 11.6667C31.5001 12.5867 32.1721 13.3333 33.0001 13.3333C33.8281 13.3333 34.5001 12.5867 34.5001 11.6667C34.5001 10.7467 33.8281 10 33.0001 10C32.1721 10 31.5001 10.7467 31.5001 11.6667ZM25.5001 11.6667C25.5001 12.5867 26.1721 13.3333 27.0001 13.3333C27.8281 13.3333 28.5001 12.5867 28.5001 11.6667C28.5001 10.7467 27.8281 10 27.0001 10C26.1721 10 25.5001 10.7467 25.5001 11.6667ZM19.5001 11.6667C19.5001 12.5867 20.1721 13.3333 21.0001 13.3333C21.8281 13.3333 22.5001 12.5867 22.5001 11.6667C22.5001 10.7467 21.8281 10 21.0001 10C20.1721 10 19.5001 10.7467 19.5001 11.6667ZM16.5 11.6667C16.5 10.7467 15.828 10 15 10C14.172 10 13.5 10.7467 13.5 11.6667C13.5 12.5867 14.172 13.3333 15 13.3333C15.828 13.3333 16.5 12.5867 16.5 11.6667ZM19.5001 18.3333C19.5001 17.4133 18.8281 16.6667 18.0001 16.6667C17.1721 16.6667 16.5 17.4133 16.5 18.3333C16.5 19.2533 17.1721 20 18.0001 20C18.8281 20 19.5001 19.2533 19.5001 18.3333ZM22.5001 25C22.5001 24.08 21.8281 23.3333 21.0001 23.3333C20.1721 23.3333 19.5001 24.08 19.5001 25C19.5001 25.92 20.1721 26.6667 21.0001 26.6667C21.8281 26.6667 22.5001 25.92 22.5001 25ZM25.5001 18.3333C25.5001 17.4133 24.8281 16.6667 24.0001 16.6667C23.1721 16.6667 22.5001 17.4133 22.5001 18.3333C22.5001 19.2533 23.1721 20 24.0001 20C24.8281 20 25.5001 19.2533 25.5001 18.3333ZM28.5001 25C28.5001 24.08 27.8281 23.3333 27.0001 23.3333C26.1721 23.3333 25.5001 24.08 25.5001 25C25.5001 25.92 26.1721 26.6667 27.0001 26.6667C27.8281 26.6667 28.5001 25.92 28.5001 25ZM31.5001 18.3333C31.5001 17.4133 30.8281 16.6667 30.0001 16.6667C29.1721 16.6667 28.5001 17.4133 28.5001 18.3333C28.5001 19.2533 29.1721 20 30.0001 20C30.8281 20 31.5001 19.2533 31.5001 18.3333ZM34.5001 25C34.5001 24.08 33.8281 23.3333 33.0001 23.3333C32.1721 23.3333 31.5001 24.08 31.5001 25C31.5001 25.92 32.1721 26.6667 33.0001 26.6667C33.8281 26.6667 34.5001 25.92 34.5001 25ZM37.5001 18.3333C37.5001 17.4133 36.8281 16.6667 36.0001 16.6667C35.1721 16.6667 34.5001 17.4133 34.5001 18.3333C34.5001 19.2533 35.1721 20 36.0001 20C36.8281 20 37.5001 19.2533 37.5001 18.3333ZM39.0001 13.3333C39.8281 13.3333 40.5001 12.5867 40.5001 11.6667C40.5001 10.7467 39.8281 10 39.0001 10C38.1721 10 37.5001 10.7467 37.5001 11.6667C37.5001 12.5867 38.1721 13.3333 39.0001 13.3333Z" fill="#111918"/>
</svg>
